<?xml version="1.0" encoding="UTF-8"?>
<svg xmlns="http://www.w3.org/2000/svg" xmlns:xlink="http://www.w3.org/1999/xlink" width="40px" height="40px" viewBox="0 0 500 500">
  <defs>
    <style>
      .cls-1 {
        fill: url(#radial-gradient-5);
      }

      .cls-2 {
        fill: url(#radial-gradient-4);
      }

      .cls-3 {
        fill: #fff;
        mix-blend-mode: overlay;
        opacity: .3;
      }

      .cls-4 {
        fill: url(#radial-gradient);
      }

      .cls-5 {
        fill: #3f3f69;
      }

      .cls-6 {
        fill: none;
        isolation: isolate;
      }

      .cls-7 {
        fill: url(#radial-gradient-2);
      }

      .cls-8 {
        fill: url(#radial-gradient-3);
      }
    </style>
    <radialGradient id="radial-gradient" cx="191.93" cy="153.08" fx="191.93" fy="153.08" r="107.45" gradientUnits="userSpaceOnUse">
      <stop offset=".17" stop-color="#231b4f"/>
      <stop offset=".44" stop-color="#261e51"/>
      <stop offset=".72" stop-color="#2f2a5a"/>
      <stop offset="1" stop-color="#3e3e68"/>
      <stop offset="1" stop-color="#3f3f69"/>
    </radialGradient>
    <radialGradient id="radial-gradient-2" cx="389.42" cy="74.44" fx="389.42" fy="74.44" r="197.36" gradientUnits="userSpaceOnUse">
      <stop offset="0" stop-color="#7ddab7"/>
      <stop offset="0" stop-color="#7bd7b6"/>
      <stop offset=".17" stop-color="#68b4b5"/>
      <stop offset=".34" stop-color="#5997b4"/>
      <stop offset=".5" stop-color="#4e83b3"/>
      <stop offset=".67" stop-color="#4877b3"/>
      <stop offset=".83" stop-color="#4674b3"/>
    </radialGradient>
    <radialGradient id="radial-gradient-3" cx="343.63" cy="200.74" fx="343.63" fy="200.74" r="147.7" xlink:href="#radial-gradient-2"/>
    <radialGradient id="radial-gradient-4" cx="4.75" cy="186.92" fx="4.75" fy="186.92" r="339.25" gradientUnits="userSpaceOnUse">
      <stop offset="0" stop-color="#e7ab2b"/>
      <stop offset=".2" stop-color="#dc7b3e"/>
      <stop offset=".41" stop-color="#d3514e"/>
      <stop offset=".6" stop-color="#cc335b"/>
      <stop offset=".77" stop-color="#c82162"/>
      <stop offset=".88" stop-color="#c71b65"/>
    </radialGradient>
    <radialGradient id="radial-gradient-5" cx="121.66" cy="117.51" fx="487.89" fy="317" r="417.04" gradientUnits="userSpaceOnUse">
      <stop offset="0" stop-color="#e7ab2b"/>
      <stop offset=".18" stop-color="#dc7b3e"/>
      <stop offset=".37" stop-color="#d3514e"/>
      <stop offset=".54" stop-color="#cc335b"/>
      <stop offset=".69" stop-color="#c82162"/>
      <stop offset=".79" stop-color="#c71b65"/>
    </radialGradient>
  </defs>
  <g class="cls-6">
    <g id="OBJECTS">
      <g>
        <g>
          <g>
            <g>
              <path class="cls-5" d="m131.59,418.06c-5.94,0-11.98-1.1-17.83-3.43-24.82-9.86-36.94-37.97-27.09-62.78l95.09-239.39c9.86-24.82,37.97-36.94,62.78-27.08,24.82,9.86,36.94,37.97,27.09,62.78l-95.09,239.39c-7.53,18.96-25.72,30.51-44.95,30.51Z"/>
              <path class="cls-4" d="m221.63,147.26c-6.6-1.76-28.08-12.89-46.58-17.93l-53,133.44c28.26-15.28,71.8-30.06,104.64-1.5h0l29.14-73.37c-13.16-18.53-28.87-39.22-34.2-40.65Z"/>
            </g>
            <path class="cls-7" d="m409.86,196.28c-5.94,0-11.98-1.1-17.84-3.43-24.82-9.86-36.94-37.97-27.08-62.78l7-17.61c9.86-24.82,37.97-36.94,62.78-27.08,24.82,9.86,36.94,37.97,27.08,62.78l-7,17.62c-7.53,18.96-25.72,30.51-44.95,30.51Z"/>
            <path class="cls-8" d="m366.71,387.54l49.18-123.81c9.86-24.82-2.27-52.93-27.09-62.78-24.82-9.86-52.93,2.27-62.78,27.09l-49.18,123.81c-9.86,24.81,2.27,52.92,27.08,62.78,5.86,2.32,11.9,3.43,17.83,3.43,19.23,0,37.42-11.55,44.95-30.51Z"/>
            <path class="cls-2" d="m132.32,418.06c5.94,0,11.98-1.1,17.84-3.43,24.82-9.86,36.94-37.97,27.08-62.78l-49.18-123.81c-9.85-24.82-37.96-36.95-62.78-27.09-24.82,9.86-36.94,37.97-27.09,62.78l49.18,123.81c7.53,18.96,25.72,30.51,44.95,30.51Z"/>
            <path class="cls-1" d="m366.71,351.85l-95.09-239.39c-3.73-9.39-10.08-16.96-17.88-22.21-.47-.32-.98-.59-1.46-.9-.88-.55-1.77-1.11-2.68-1.6-.57-.3-1.17-.57-1.76-.86-.9-.44-1.79-.87-2.72-1.25-.2-.08-.39-.19-.6-.27-.46-.18-.93-.3-1.39-.47-.83-.3-1.66-.6-2.5-.85-.73-.22-1.46-.41-2.19-.59-.79-.2-1.58-.39-2.38-.55-.78-.16-1.55-.28-2.33-.4-.77-.12-1.55-.22-2.33-.3-.79-.08-1.58-.13-2.37-.17-.78-.04-1.57-.06-2.36-.06s-1.56.02-2.34.06c-.79.04-1.59.09-2.38.17-.78.08-1.55.18-2.32.3-.78.12-1.56.24-2.33.4-.81.16-1.6.35-2.39.55-.73.18-1.45.37-2.18.59-.86.26-1.7.56-2.53.86-.45.16-.91.28-1.36.47-.21.08-.4.19-.6.28-.83.34-1.64.73-2.44,1.11-.65.32-1.31.61-1.95.95-.71.38-1.39.8-2.08,1.22-.68.4-1.37.8-2.02,1.24-.61.41-1.19.86-1.79,1.3-.67.5-1.35.98-1.99,1.51-.58.48-1.13,1-1.68,1.5-.6.54-1.21,1.07-1.77,1.63-.58.58-1.11,1.2-1.66,1.8-.49.55-1.01,1.08-1.47,1.65-.53.66-1.03,1.35-1.53,2.03-.43.59-.87,1.15-1.28,1.75-.45.67-.85,1.37-1.27,2.06-.41.68-.82,1.34-1.19,2.04-.35.65-.65,1.32-.97,1.99-.38.79-.76,1.58-1.09,2.39-.09.21-.2.41-.28.62l-36.4,91.65,7.48-2.96c23.51-9.31,50.02,1.89,59.9,25l64.11,161.4c7.53,18.96,25.71,30.51,44.95,30.51,5.94,0,11.98-1.1,17.83-3.43,24.82-9.86,36.94-37.97,27.09-62.78Z"/>
          </g>
          <path class="cls-3" d="m326.26,250l-54.63-137.54c-3.73-9.39-10.08-16.96-17.88-22.21-.47-.32-.98-.59-1.46-.9-.88-.55-1.77-1.11-2.68-1.6-.57-.3-1.17-.57-1.76-.86-.9-.44-1.79-.87-2.72-1.25-.2-.08-.39-.19-.6-.27-.46-.18-.93-.3-1.39-.47-.83-.3-1.66-.6-2.5-.85-.73-.22-1.46-.41-2.19-.59-.79-.2-1.58-.39-2.38-.55-.78-.16-1.55-.28-2.33-.4-.77-.12-1.55-.22-2.33-.3-.79-.08-1.58-.13-2.37-.17-.78-.04-1.57-.06-2.36-.06s-1.56.02-2.34.06c-.79.04-1.59.09-2.38.17-.78.08-1.55.18-2.32.3-.78.12-1.56.24-2.33.4-.81.16-1.6.35-2.39.55-.73.18-1.45.37-2.18.59-.86.26-1.7.56-2.53.86-.45.16-.91.28-1.36.47-.21.08-.4.19-.6.28-.83.34-1.64.73-2.44,1.11-.65.32-1.31.61-1.95.95-.71.38-1.39.8-2.08,1.22-.68.4-1.37.8-2.02,1.24-.61.41-1.19.86-1.79,1.3-.67.5-1.35.98-1.99,1.51-.58.48-1.13,1-1.68,1.5-.6.54-1.21,1.07-1.77,1.63-.58.58-1.11,1.2-1.66,1.8-.49.55-1.01,1.08-1.47,1.65-.53.66-1.03,1.35-1.53,2.03-.43.59-.87,1.15-1.28,1.75-.45.67-.85,1.37-1.27,2.06-.41.68-.82,1.34-1.19,2.04-.35.65-.65,1.32-.97,1.99-.38.79-.76,1.58-1.09,2.39-.09.21-.2.41-.28.62l-10.16,25.58c47.28,9.4,122.13,36.12,154.66,111.96Z"/>
        </g>
        <path class="cls-3" d="m65.28,200.95c-20.3,8.07-32.09,28.35-30.32,49.05,4.05-.34,87.87-6.1,138.28,91.8h0l-45.18-113.76c-9.85-24.82-37.96-36.95-62.78-27.09Z"/>
      </g>
    </g>
  </g>
</svg>